<?xml version="1.0" encoding="utf-8"?>
<!-- Generator: Adobe Illustrator 26.0.3, SVG Export Plug-In . SVG Version: 6.00 Build 0)  -->
<svg version="1.0" id="katman_1" xmlns="http://www.w3.org/2000/svg" xmlns:xlink="http://www.w3.org/1999/xlink" x="0px" y="0px"
	 viewBox="0 0 800 600" style="enable-background:new 0 0 800 600;" xml:space="preserve">
<style type="text/css">
	.st0{fill-rule:evenodd;clip-rule:evenodd;fill:#EA1944;}
	.st1{fill:#EA1944;}
</style>
<g id="Layer_2">
	<g id="Layer_1-2">
		<path class="st0" d="M427.7,296.4c0-7.3,10.3-12.7,26.2-12.7c18.1,0,35,6.4,45.6,15.4c1.7,1.5,4.3,1.3,5.8-0.5
			c0.2-0.2,0.3-0.4,0.4-0.6l12.8-25.7c1-1.7,0.5-3.9-1.1-5.1c-15.9-12-37.4-20.6-64-20.6c-43.8,0-68.2,24.5-68.2,52.4
			c0,65.1,98.9,42.6,98.9,71.2c0,7.8-8.9,14.5-27.9,14.5c-19,0-41.1-7.3-54-17.7c-1.8-1.4-4.4-1.1-5.8,0.7c-0.1,0.1-0.2,0.3-0.3,0.4
			l-14.7,24.5c-1,1.7-0.7,3.8,0.8,5.1c17.6,14.8,44.3,23.6,71.8,23.6c46.2,0,72-22.7,72-53.4C526.2,302.3,427.7,322.6,427.7,296.4z"
			/>
		<path class="st0" d="M228.4,185.4h-38.5c-1.5,0-2.8,1.3-2.8,2.8v81.2c-12.8-14.1-30.2-22.7-49.7-22.7
			c-41.5,0.1-75.2,39.2-75.2,87.4s33.7,87.3,75.2,87.3c19.5,0,36.8-8.6,49.6-22.7v15.7c0,1.5,1.3,2.8,2.8,2.8h38.5
			c1.5,0,2.8-1.3,2.8-2.8V188.2C231.1,186.6,229.9,185.4,228.4,185.4z M146.7,384.7c-22.3,0-40.3-22.7-40.3-50.7
			c0-28,18.1-50.6,40.4-50.6s40.3,22.5,40.3,50.3v0.8C186.9,362.2,168.9,384.7,146.7,384.7z"/>
		<path class="st0" d="M639.9,246.7c-20.3,0-36,8.5-46.2,22.5v-81c0-1.5-1.3-2.8-2.8-2.8h-38.5c-1.5,0-2.8,1.3-2.8,2.8v226.2
			c0,1.5,1.3,2.8,2.8,2.8h38.5c1.5,0,2.8-1.3,2.8-2.8v-96.8c0-22,15.7-34.1,34.6-34.1c18.9,0,33.8,11.6,33.8,40.2v90.7
			c0,1.5,1.3,2.8,2.8,2.8h38.5c1.5,0,2.8-1.2,2.8-2.8c0,0,0,0,0,0V321C706.1,269.7,676.6,246.7,639.9,246.7z"/>
		<path class="st1" d="M281.2,203.7c0-14.4,11.7-26,26.1-26c14.4,0,26,11.7,26,26.1c0,14.4-11.7,26-26,26
			C292.9,229.7,281.3,218.1,281.2,203.7z M357.1,374.9c-30.7,17.2-68.2,17.2-99,0c-2.9-1.6-4.4,1.2-3.8,3.7
			c6,24.6,27.5,42.8,53.2,42.9h0.4c25.5-0.4,47.4-18.1,53.2-42.9C361.6,376.1,360,373.3,357.1,374.9z M346.7,312.8
			c-24.3,13.6-53.9,13.6-78.2,0c-2.3-1.3-3.5,1-3,2.9c4.6,19.6,21.9,33.6,42,33.9h0.2c20.1-0.3,37.4-14.3,42-33.9
			C350.2,313.8,349,311.6,346.7,312.8z M335.6,260c-17.4,9.8-38.6,9.8-56,0c-1.6-0.9-2.5,0.7-2.2,2.1c3.3,14,15.7,24.1,30.1,24.3
			h0.2c14.4-0.2,26.8-10.3,30.1-24.3C338.1,260.7,337.2,259.1,335.6,260z"/>
		<path class="st1" d="M724.7,407.1v1.6h-3.1v8.2h-2v-8.2h-3.1v-1.6L724.7,407.1z M735.3,417l-0.4-5.8c0-0.8,0-1.7,0-2.7h-0.1
			c-0.3,0.9-0.5,2-0.8,2.9l-1.8,5.5h-2l-1.8-5.6c-0.2-0.8-0.5-1.8-0.7-2.8h0c0,0.9,0,1.8,0,2.7l-0.4,5.8h-1.8l0.7-9.8h2.9l1.7,4.8
			c0.2,0.8,0.4,1.5,0.7,2.5l0,0c0.3-0.9,0.5-1.7,0.7-2.5l1.7-4.8h2.8l0.8,9.8L735.3,417z"/>
	</g>
</g>
</svg>
