<?xml version="1.0" encoding="utf-8"?>
<!-- Generator: Adobe Illustrator 28.3.0, SVG Export Plug-In . SVG Version: 6.00 Build 0)  -->
<svg version="1.0"
	 id="svg42" xmlns:svg="http://www.w3.org/2000/svg" xmlns:sodipodi="http://sodipodi.sourceforge.net/DTD/sodipodi-0.dtd" xmlns:inkscape="http://www.inkscape.org/namespaces/inkscape" inkscape:export-filename="Fandango at Home 2024.png" sodipodi:docname="Fandango at Home 2024.svg"
	 xmlns="http://www.w3.org/2000/svg" xmlns:xlink="http://www.w3.org/1999/xlink" x="0px" y="0px" viewBox="0 0 1118 702.06"
	 style="enable-background:new 0 0 1118 702.06;" xml:space="preserve">
<style type="text/css">
	.st0{fill:#FF7300;}
	.st1{fill:#3478C1;}
	.st2{fill:#FFFFFF;}
</style>
<sodipodi:namedview  bordercolor="#eeeeee" borderopacity="1" id="namedview42" inkscape:current-layer="svg42" inkscape:cx="656" inkscape:cy="9.5" inkscape:deskcolor="#d1d1d1" inkscape:pagecheckerboard="0" inkscape:pageopacity="0" inkscape:showpageshadow="0" inkscape:window-height="991" inkscape:window-maximized="1" inkscape:window-width="1920" inkscape:window-x="-9" inkscape:window-y="-9" inkscape:zoom="1" pagecolor="#505050">
	</sodipodi:namedview>
<path id="path23" class="st0" d="M587.22,370.59h-8.93l-0.05,37.22h-18.13H542l-0.05-37.22h-8.94c-0.18,0-0.33-0.03-0.52-0.03
	l-13.62,0.03v88.34l23.07-0.03l0.05-28.67l18.12-0.03l18.13,0.03l0.05,28.67l23.06,0.03v-88.34l-13.62-0.03
	C587.56,370.59,587.41,370.59,587.22,370.59z"/>
<path id="path24" class="st0" d="M659.09,368.89c-27.1,0-47.46,18.79-47.46,45.69c0,26.87,20.33,45.69,47.46,45.69
	c27.1,0,47.31-18.82,47.31-45.69C706.4,387.68,686.2,368.89,659.09,368.89L659.09,368.89z M685.12,416.15
	c-0.39,6.18-2.86,11.74-6.8,16.04c-0.49,0.46-0.96,0.98-1.42,1.44c-8.32,7.7-21.47,10.24-34.59,1.65c-1.7-1.11-3.16-2.6-4.25-4.3
	c-13.23-20.75,1.37-42.44,21.08-42.44c13.9,0,25.18,10.84,26,24.48v3.14H685.12z"/>
<path id="path25" class="st0" d="M863.2,439.44v-14.57h21.96h2.09c4.15-0.49,7.42-3.89,7.64-8.11v-1.03v-10.81H863.2v-14.57h43.84
	v-19.77h-68.13v88.62h0.39h68.15v-19.77L863.2,439.44z"/>
<path id="path26" class="st0" d="M823.18,370.67h-21.94v0.03h-11.19l-20.31,65.2l-20.31-65.2h-11.1v-0.03h-21.92v88.52h21.92v-28.75
	V408.4l16.71,50.81h0.3h28.78h0.3l16.8-51.12v41.78c0,4.2,4.92,9.34,9.12,9.34h12.82v-28.75v-22.47L823.18,370.67z"/>
<path id="path27" class="st0" d="M398.66,450.49l-1.62-4.97h-35.62l-4.38,13.36H333l32.28-88.29h27.77l32.41,88.29h-15.21
	C404.99,458.9,400.31,455.51,398.66,450.49L398.66,450.49z M379.15,390.46l-11.97,35.86h24.04L379.15,390.46z"/>
<path id="path28" class="st0" d="M438.79,458.9v-68.44h-24.05v-19.84h70.12v19.84h-23.92v68.42h-22.16V458.9z"/>
<path id="path29" class="st1" d="M1012.03,242.15c-26.93,0-47.13,18.66-47.13,45.35c0,26.69,20.2,45.38,47.13,45.38
	c26.92,0,46.97-18.66,46.97-45.38C1059,260.79,1038.95,242.15,1012.03,242.15z M1037.85,289.08c-0.39,6.13-2.84,11.66-6.77,15.91
	c-0.49,0.46-0.93,0.98-1.42,1.44c-4.63,4.3-10.8,6.98-17.62,6.98c-14.34,0-25.98-11.58-25.98-25.87c0-14.29,11.64-25.87,25.98-25.87
	c13.79,0,25,10.76,25.82,24.32V289.08z"/>
<path id="path30" class="st1" d="M913.81,280.94v19.85h19.79v6.82c-3.16,2.62-9.76,5.28-16.24,5.28
	c-14.39,0-24.56-11.04-24.56-25.38c0-14.47,10.17-25.38,24.56-25.38c8.57,0,15.32,5.38,18.61,11.17l19.02-9.86
	c-6.07-10.91-17.96-21.31-37.6-21.31c-26.25,0-47.65,17.48-47.65,45.35c0,27.88,21.4,45.35,47.65,45.35
	c14.88,0,26.78-5.38,35.83-13.95c0.18-0.18,0.35-0.36,0.54-0.54c1.49-1.6,2.41-3.71,2.57-6.05v-1.18v-30.17H913.81z"/>
<path id="path31" class="st1" d="M847.43,243.62h-1.75c-4.9,0.44-8.75,4.4-8.96,9.34v0.77v38.15l-35.6-48.26h-23.37v87.69h22.7
	v-50.76l37.22,50.76h21.91v-87.69H847.43z"/>
<path id="path32" class="st1" d="M735.95,243.62H707.3l-33.13,87.69h25.71l4.36-12.61h34.72l2.29,6.61l0.02,0.08
	c1.42,3.35,4.69,5.69,8.5,5.92h19.29L735.95,243.62z M710.49,298.96l11.23-33l11.1,33H710.49z"/>
<path id="path33" class="st1" d="M629.26,243.62H592.3v78.51c0.3,5.04,4.41,9.03,9.53,9.19h27.56c27.57,0,47.52-16.71,47.52-43.91
	C676.88,260.17,656.96,243.62,629.26,243.62z M629.26,311.57H615v-48.24h14.39c16.09,0,24.27,10.53,24.27,24.07
	C653.65,300.4,644.68,311.57,629.26,311.57z"/>
<path id="path34" class="st1" d="M564.34,243.62h-1.15c-4.95,0.28-8.88,4.2-9.22,9.14v1.26v37.86l-35.62-48.26h-23.37v87.69h22.7
	v-50.76l37.22,50.76h21.91v-87.69H564.34z"/>
<path id="path35" class="st1" d="M453.69,243.62h-29.3l-33.13,87.69h26.38l4.36-12.61h34.7l2.29,6.61l0.02,0.08
	c1.42,3.35,4.69,5.69,8.5,5.92h19.28L453.69,243.62z M428.21,298.96l11.23-33l11.09,33H428.21z"/>
<path id="path36" class="st1" d="M400.05,263.18v-19.56h-67.46v87.69h24.07v-30.86h21.75h2.06c4.12-0.49,7.34-3.86,7.57-8.03v-1.03
	v-10.71h-31.38v-17.53h43.4V263.18z"/>
<path id="path37" sodipodi:nodetypes="ccccccccccccc" class="st0" d="M264.71,352.81c-10.55-2.11-19.51-9.99-22.5-21.08
	c-2.96-11.09,0.88-22.39,8.93-29.5l-16.73-62.44L59,286.81l16.73,62.47v0.03c10.5,2.14,19.41,9.99,22.37,21.06
	c2.96,11.04-0.82,22.32-8.85,29.42v0.03l16.73,62.47l175.44-47L264.71,352.81z"/>
<path id="path38" class="st2" d="M185.23,304.47l-52.02,13.92l10.48,39.02l51.99-13.95l10.45,39.02l-51.99,13.92l10.45,39.02
	l-52.02,13.92l-12.64-47.18c7.59-9.32,10.76-22.03,7.41-34.54c-3.35-12.51-12.46-21.93-23.68-26.2l-12.9-48.11l104.04-27.88
	L185.23,304.47z"/>
</svg>
