<svg xmlns="http://www.w3.org/2000/svg"  viewBox="0 0 50 50" width="100px" height="100px"><path d="M 13.371094 16.386719 C 11.675094 16.386719 10.621094 17.530141 10.621094 19.369141 L 10.621094 20 L 10.207031 20 C 10.125031 20 10.048953 20.039469 10.001953 20.105469 L 8.8847656 21.705078 C 8.8317656 21.782078 8.8241875 21.882844 8.8671875 21.964844 C 8.9101875 22.047844 8.9958437 22.099609 9.0898438 22.099609 L 10.621094 22.099609 L 10.621094 29.650391 C 10.621094 29.788391 10.733094 29.900391 10.871094 29.900391 L 12.917969 29.900391 C 13.055969 29.900391 13.167969 29.788391 13.167969 29.650391 L 13.167969 22.099609 L 15.003906 22.099609 C 15.141906 22.099609 15.253906 21.987609 15.253906 21.849609 L 15.253906 20.25 C 15.253906 20.112 15.141906 20 15.003906 20 L 13.167969 20 L 13.167969 19.339844 C 13.167969 18.789844 13.338437 18.623047 13.898438 18.623047 C 14.339438 18.623047 14.7725 18.727484 14.9375 18.771484 C 15.0135 18.792484 15.091297 18.776516 15.154297 18.728516 C 15.216297 18.681516 15.253906 18.607297 15.253906 18.529297 L 15.253906 16.884766 C 15.253906 16.779766 15.187891 16.685437 15.087891 16.648438 C 14.615891 16.479437 14.005094 16.386719 13.371094 16.386719 z M 37.535156 16.707031 C 37.493281 16.705156 37.451609 16.712922 37.412109 16.732422 L 35.371094 17.769531 C 35.287094 17.811531 35.234375 17.898188 35.234375 17.992188 L 35.234375 20 L 33.996094 20 C 33.858094 20 33.746094 20.112 33.746094 20.25 L 33.746094 21.849609 C 33.746094 21.987609 33.858094 22.099609 33.996094 22.099609 L 35.234375 22.099609 L 35.234375 27.103516 C 35.234375 28.942516 36.286516 30.082031 37.978516 30.082031 C 38.541516 30.082031 39.074563 30.013672 39.476562 29.888672 C 39.568562 29.860672 39.635391 29.7825 39.650391 29.6875 L 39.896484 28.056641 C 39.909484 27.974641 39.879359 27.892938 39.818359 27.835938 C 39.757359 27.779937 39.673797 27.756391 39.591797 27.775391 C 39.248797 27.858391 38.957562 27.900391 38.726562 27.900391 C 38.015563 27.900391 37.775391 27.664891 37.775391 26.962891 L 37.775391 22.099609 L 39.275391 22.099609 C 39.357391 22.099609 39.435422 22.058234 39.482422 21.990234 C 39.529422 21.923234 39.539766 21.837719 39.509766 21.761719 L 38.898438 20.162109 C 38.860437 20.064109 38.768062 20 38.664062 20 L 37.775391 20 L 37.775391 16.955078 C 37.775391 16.868078 37.73025 16.787187 37.65625 16.742188 C 37.61925 16.720188 37.577031 16.708906 37.535156 16.707031 z M 24.976562 19.8125 C 24.178563 19.8125 23.419094 20.064141 22.871094 20.494141 L 22.871094 20.25 C 22.871094 20.112 22.759094 20 22.621094 20 L 20.578125 20 C 20.440125 20 20.328125 20.112 20.328125 20.25 L 20.328125 29.650391 C 20.328125 29.788391 20.440125 29.900391 20.578125 29.900391 L 22.621094 29.900391 C 22.759094 29.900391 22.871094 29.788391 22.871094 29.650391 L 22.871094 24.164062 C 22.871094 23.199063 23.150516 22.048828 24.478516 22.048828 C 25.443516 22.048828 26.085938 22.438797 26.085938 24.341797 L 26.085938 29.650391 C 26.085938 29.788391 26.197937 29.900391 26.335938 29.900391 L 28.376953 29.900391 C 28.514953 29.900391 28.626953 29.788391 28.626953 29.650391 L 28.626953 24.271484 C 28.626953 21.395484 27.329562 19.8125 24.976562 19.8125 z M 0.22460938 20 C 0.13160937 20 0.044953125 20.051766 0.001953125 20.134766 C -0.041046875 20.217766 -0.03446875 20.318531 0.01953125 20.394531 L 3.1113281 24.789062 L -0.20507812 29.507812 C -0.25907812 29.583813 -0.26565625 29.684578 -0.22265625 29.767578 C -0.17965625 29.850578 -0.093 29.900391 0 29.900391 L 2.3457031 29.900391 C 2.4287031 29.900391 2.5057344 29.859016 2.5527344 29.791016 L 4.5488281 26.869141 L 8.7304688 32.845703 C 8.7774688 32.911703 8.8525938 32.950172 8.9335938 32.951172 L 11.195312 32.96875 L 11.197266 32.96875 C 11.290266 32.96875 11.375922 32.917938 11.419922 32.835938 C 11.462922 32.753937 11.456344 32.652172 11.402344 32.576172 L 5.9746094 24.789062 L 9.0703125 20.392578 C 9.1243125 20.316578 9.1308906 20.217766 9.0878906 20.134766 C 9.0448906 20.051766 8.9582344 20 8.8652344 20 L 6.5214844 20 C 6.4384844 20 6.3614531 20.041375 6.3144531 20.109375 L 4.5449219 22.699219 L 2.7753906 20.109375 C 2.7293906 20.041375 2.6533125 20 2.5703125 20 L 0.22460938 20 z M 16.347656 20 C 16.209656 20 16.097656 20.112 16.097656 20.25 L 16.097656 29.650391 C 16.097656 29.788391 16.209656 29.900391 16.347656 29.900391 L 18.392578 29.900391 C 18.530578 29.900391 18.642578 29.788391 18.642578 29.650391 L 18.642578 20.25 C 18.642578 20.112 18.529578 20 18.392578 20 L 16.347656 20 z M 30.466797 20 C 30.328797 20 30.216797 20.112 30.216797 20.25 L 30.216797 29.650391 C 30.216797 29.788391 30.328797 29.900391 30.466797 29.900391 L 32.521484 29.900391 C 32.659484 29.900391 32.771484 29.788391 32.771484 29.650391 L 32.771484 20.25 C 32.771484 20.112 32.658484 20 32.521484 20 L 30.466797 20 z M 40.150391 20 C 40.068391 20 39.990359 20.040422 39.943359 20.107422 C 39.896359 20.175422 39.887969 20.262844 39.917969 20.339844 L 43.025391 28.427734 L 40.789062 32.572266 C 40.747062 32.649266 40.749922 32.743359 40.794922 32.818359 C 40.838922 32.894359 40.919813 32.940406 41.007812 32.941406 L 43.160156 32.958984 L 43.162109 32.958984 C 43.253109 32.958984 43.336859 32.908125 43.380859 32.828125 L 50.21875 20.369141 C 50.26175 20.292141 50.259844 20.198047 50.214844 20.123047 C 50.169844 20.047047 50.088 20 50 20 L 47.794922 20 C 47.702922 20 47.618219 20.050859 47.574219 20.130859 L 44.556641 25.640625 L 42.503906 20.162109 C 42.467906 20.064109 42.373531 20 42.269531 20 L 40.150391 20 z"/></svg>